:version 1.10
:name ASF
:units
  mass 1
  length 1
  angle deg
:documentation
  ASF file generated by Kaydara
:root
  axis xyz
  order  tx ty tz rx ry rz
  position 0 0 0
  orientation 0 0 0
:bonedata
  begin
    id 1
    name RightUpLegDummy
    direction -0.65628 -0.754516 0.00165102
    length 4.76918
    axis 0 0 0 xyz
  end
  begin
    id 2
    name RightUpLeg
    direction -0.145584 -0.923362 0.355256
    length 17.9961
    axis -24.7611 -13.1006 1.78531 xyz
    dof rx ry rz
  end
  begin
    id 3
    name RightLeg
    direction 0.263379 0.172355 -0.949171
    length 13.3386
    axis 89.6202 -21.1929 12.3855 xyz
    dof rx ry rz
  end
  begin
    id 4
    name RightFoot
    direction 0.224283 -0.968777 -0.105675
    length 5.86697
    axis 56.995 -39.6905 17.3365 xyz
    dof rx ry rz
  end
  begin
    id 5
    name RightToes
    direction -0.0806345 -0.9037 0.420506
    length 4.75197
    axis 146.825 -39.7828 17.6019 xyz
    dof rx ry rz
  end
  begin
    id 6
    name SpineDummy
    direction -3.39852e-014 1 9.33296e-014
    length 8.13779
    axis 0 0 0 xyz
  end
  begin
    id 7
    name Spine
    direction -0.156609 0.733703 0.661176
    length 7.14978
    axis 41.2365 5.68757 17.0844 xyz
    dof rx ry rz
  end
  begin
    id 8
    name Spine1
    direction 0 0 0
    length 0
    axis 42.8809 47.8308 -3.36039 xyz
    dof rx ry rz
  end
  begin
    id 9
    name HEadDummy
    direction 0.546431 0.701947 0.456819
    length 3.55512
    axis 42.8809 47.8308 -3.36039 xyz
  end
  begin
    id 10
    name HEad
    direction 0.23444 0.828559 0.508457
    length 7.35827
    axis 51.1864 49.2662 27.4903 xyz
    dof rx ry rz
  end
  begin
    id 11
    name LeftShoulder1Dummy
    direction 0.431183 0.475873 -0.766568
    length 2.49352
    axis 42.8809 47.8308 -3.36039 xyz
  end
  begin
    id 12
    name LeftShoulder1
    direction 0.268187 -0.383402 -0.883786
    length 4.48604
    axis -119.517 0.106469 35.1736 xyz
    dof rx ry rz
  end
  begin
    id 13
    name LeftArm
    direction 0.380567 -0.703221 -0.600541
    length 10.1142
    axis -5.41825 36.2925 7.8293 xyz
    dof rx ry rz
  end
  begin
    id 14
    name LeftForeArm
    direction 0.541071 -0.732356 -0.413396
    length 9.39839
    axis 4.65387 33.7604 7.81644 xyz
    dof rx ry rz
  end
  begin
    id 15
    name LeftHand
    direction 0.847511 -0.389379 -0.360707
    length 3.66142
    axis 7.65593 21.1436 -24.6758 xyz
    dof rx ry rz
  end
  begin
    id 16
    name RightShoulderDummy
    direction -0.692546 0.541855 0.476208
    length 2.49352
    axis 42.8809 47.8308 -3.36039 xyz
  end
  begin
    id 17
    name RightShoulder
    direction -0.870808 -0.316653 0.376065
    length 4.48602
    axis 141.571 51.133 -100.254 xyz
    dof rx ry rz
  end
  begin
    id 18
    name RightArm
    direction 0.366897 -0.87275 0.322015
    length 10.1142
    axis 92.3258 71.2036 138.917 xyz
    dof rx ry rz
  end
  begin
    id 19
    name RightForeArm
    direction 0.702487 -0.694568 0.155197
    length 9.39835
    axis 153.863 41.5092 -176.604 xyz
    dof rx ry rz
  end
  begin
    id 20
    name RightHand
    direction 0.79502 -0.601276 0.0800636
    length 3.66142
    axis 154.247 4.59222 142.9 xyz
    dof rx ry rz
  end
  begin
    id 21
    name LeftUpLegDummy
    direction 0.65628 -0.754516 0.00165102
    length 4.76919
    axis 0 0 0 xyz
  end
  begin
    id 22
    name LeftUpLeg
    direction -0.1277 -0.689368 0.713067
    length 17.9961
    axis -48.3385 -17.8675 0.791927 xyz
    dof rx ry rz
  end
  begin
    id 23
    name LeftLeg
    direction 0.109849 -0.991246 -0.0732378
    length 13.3386
    axis -2.05791 -7.30784 1.72042 xyz
    dof rx ry rz
  end
  begin
    id 24
    name LeftFoot
    direction 0.0448355 -0.272614 0.961078
    length 5.86697
    axis -18.7733 -7.89606 10.2113 xyz
    dof rx ry rz
  end
  begin
    id 25
    name LeftToes
    direction -0.18506 0.293668 0.937823
    length 4.75197
    axis 71.2267 -7.89606 10.2113 xyz
    dof rx ry rz
  end
:hierarchy
  begin
    root RightUpLegDummy SpineDummy LeftUpLegDummy
    RightUpLegDummy RightUpLeg
    RightUpLeg RightLeg
    RightLeg RightFoot
    RightFoot RightToes
    SpineDummy Spine
    Spine Spine1
    Spine1 HEadDummy LeftShoulder1Dummy RightShoulderDummy
    HEadDummy HEad
    LeftShoulder1Dummy LeftShoulder1
    LeftShoulder1 LeftArm
    LeftArm LeftForeArm
    LeftForeArm LeftHand
    RightShoulderDummy RightShoulder
    RightShoulder RightArm
    RightArm RightForeArm
    RightForeArm RightHand
    LeftUpLegDummy LeftUpLeg
    LeftUpLeg LeftLeg
    LeftLeg LeftFoot
    LeftFoot LeftToes
  end

:SAMPLES-PER-SECOND 30
:FULLY-SPECIFIED
:DEGREES
551
root  -20.6281 38.8767 -20.7412 165.246 50.5007 173.369
RightUpLeg  18.3324 9.43328 6.47524
RightLeg  -87.8606 -13.5033 5.90669
RightFoot  15.4942 8.99522 -22.1353
RightToes  -1.27222e-014 -6.36111e-015 6.36111e-015
Spine  -37.9895 -12.3813 -14.6488
Spine1  6.33603 -6.78049 31.9576
HEad  9.71703 8.53635 -8.76206
LeftShoulder1  6.36111e-015 -1.33558e-015 6.49777e-015
LeftArm  44.9635 -15.589 -58.3331
LeftForeArm  -4.09549 -19.7319 -1.29883
LeftHand  -1.0733 0.188747 -13.793
RightShoulder  -4.77083e-015 -6.36111e-015 -3.18055e-015
RightArm  44.323 -38.2844 -6.67951
RightForeArm  -14.3912 -15.7177 -4.70192
RightHand  1.80954 -1.75227 -10.2062
LeftUpLeg  40.6408 17.4987 3.28427
LeftLeg  -17.9868 -14.6053 0.30592
LeftFoot  1.1247 2.44471 -7.93213
LeftToes  9.54166e-015 -1.91609e-011 -2.3878e-011
552
root  -20.7575 38.866 -20.794 164.744 51.3624 173.256
RightUpLeg  18.5295 9.95386 6.5357
RightLeg  -87.4352 -13.4714 5.36761
RightFoot  15.3969 8.72341 -21.663
RightToes  -1.27222e-014 -6.36111e-015 6.36111e-015
Spine  -38.5084 -12.2227 -14.9058
Spine1  7.28198 -6.42473 32.2151
HEad  10.4453 9.37137 -8.47728
LeftShoulder1  6.36111e-015 -1.33558e-015 6.49777e-015
LeftArm  43.9483 -14.4717 -57.0138
LeftForeArm  -1.99212 -19.7932 -3.05021
LeftHand  -1.05828 0.415764 -14.3234
RightShoulder  -4.77083e-015 -6.36111e-015 -3.18055e-015
RightArm  45.8213 -42.9378 -21.4658
RightForeArm  -3.66611 -6.70187 5.41762
RightHand  1.34328 -1.18804 -8.00773
LeftUpLeg  41.2005 17.8233 3.74909
LeftLeg  -18.0582 -14.3991 0.27044
LeftFoot  -0.0621876 2.97447 -10.0084
LeftToes  9.54166e-015 -1.91609e-011 -2.3878e-011
553
root  -20.8973 38.8377 -20.8378 164.378 52.0558 173.161
RightUpLeg  18.4333 10.1851 6.42269
RightLeg  -86.9047 -13.4481 4.80749
RightFoot  15.2928 8.61204 -21.4651
RightToes  -1.27222e-014 -6.36111e-015 6.36111e-015
Spine  -39.0619 -12.101 -15.0156
Spine1  8.30264 -6.15632 32.2661
HEad  10.8279 10.3481 -8.072
LeftShoulder1  6.36111e-015 -1.33558e-015 6.49777e-015
LeftArm  40.5382 -12.2378 -53.0472
LeftForeArm  1.35006 -21.0654 -5.75063
LeftHand  -1.017 0.659556 -14.5661
RightShoulder  -4.77083e-015 -6.36111e-015 -3.18055e-015
RightArm  49.7571 -46.6651 -36.2621
RightForeArm  7.70479 0.257757 13.8948
RightHand  0.588632 -0.679888 -3.4281
LeftUpLeg  41.5454 18.193 4.35893
LeftLeg  -17.9196 -14.4823 0.263926
LeftFoot  -1.35156 3.43566 -12.0405
LeftToes  9.54166e-015 -1.91609e-011 -2.3878e-011
554
root  -21.0592 38.7943 -20.8751 164.087 52.4471 173.176
RightUpLeg  18.2814 10.308 6.26928
RightLeg  -86.3122 -13.4759 4.45818
RightFoot  15.1443 8.55899 -21.3641
RightToes  -1.27222e-014 -6.36111e-015 6.36111e-015
Spine  -39.4236 -12.0068 -14.9459
Spine1  9.28966 -6.02618 32.1895
HEad  10.8607 11.1925 -7.69094
LeftShoulder1  6.36111e-015 -1.33558e-015 6.49777e-015
LeftArm  36.7504 -9.38725 -48.4672
LeftForeArm  4.62165 -22.3524 -8.37275
LeftHand  -1.00994 0.71084 -14.6347
RightShoulder  -4.77083e-015 -6.36111e-015 -3.18055e-015
RightArm  54.2028 -48.1953 -42.6354
RightForeArm  11.8809 2.03641 16.4849
RightHand  -0.29247 -0.359846 2.74103
LeftUpLeg  41.6368 18.4933 4.74449
LeftLeg  -17.4527 -14.4362 0.196319
LeftFoot  -2.32486 3.63491 -13.1489
LeftToes  9.54166e-015 -1.91609e-011 -2.3878e-011
555
root  -21.2412 38.7455 -20.9174 163.745 52.6436 173.275
RightUpLeg  18.2838 10.5648 6.19319
RightLeg  -85.6638 -13.5333 4.21931
RightFoot  14.9199 8.34728 -20.9824
RightToes  -1.27222e-014 -6.36111e-015 6.36111e-015
Spine  -39.6459 -12.0103 -14.7366
Spine1  10.3607 -6.07354 32.1149
HEad  10.6421 12.0055 -7.51326
LeftShoulder1  6.36111e-015 -1.33558e-015 6.49777e-015
LeftArm  34.1637 -6.62092 -44.8632
LeftForeArm  6.52949 -22.8776 -9.92009
LeftHand  -1.01095 0.71409 -14.6563
RightShoulder  -4.77083e-015 -6.36111e-015 -3.18055e-015
RightArm  58.7714 -48.7636 -45.4319
RightForeArm  11.4538 2.47881 15.7338
RightHand  -0.92802 0.264559 7.08182
LeftUpLeg  41.6455 18.6157 4.67026
LeftLeg  -16.8687 -14.0107 0.0522228
LeftFoot  -2.99583 3.66491 -13.5576
LeftToes  9.54166e-015 -1.91609e-011 -2.3878e-011
556
root  -21.4345 38.7029 -20.9656 163.356 52.8147 173.391
RightUpLeg  18.4032 10.915 6.17622
RightLeg  -85.1316 -13.5772 4.02569
RightFoot  14.7896 8.07548 -20.5009
RightToes  -1.27222e-014 -6.36111e-015 6.36111e-015
Spine  -39.9247 -12.1872 -14.4526
Spine1  11.5314 -6.30366 32.1082
HEad  10.4441 13.0107 -7.44934
LeftShoulder1  6.36111e-015 -1.33558e-015 6.49777e-015
LeftArm  33.2215 -4.38265 -42.6591
LeftForeArm  6.87417 -22.7119 -10.2482
LeftHand  -0.993021 0.77001 -14.61
RightShoulder  -4.77083e-015 -6.36111e-015 -3.18055e-015
RightArm  62.7569 -48.8614 -47.2651
RightForeArm  9.73532 2.02315 14.1592
RightHand  -1.07238 1.5758 7.06424
LeftUpLeg  41.7261 18.6489 4.39824
LeftLeg  -16.4486 -13.4964 -0.0823189
LeftFoot  -3.52958 3.70291 -13.949
LeftToes  9.54166e-015 -1.91609e-011 -2.3878e-011
557
root  -21.6333 38.6733 -21.0054 162.995 53.0472 173.434
RightUpLeg  18.4385 11.2385 6.12222
RightLeg  -84.8126 -13.6054 3.92279
RightFoot  14.8578 7.92014 -20.2372
RightToes  -1.27222e-014 -6.36111e-015 6.36111e-015
Spine  -40.2949 -12.5756 -14.2825
Spine1  12.5359 -6.6548 32.3041
HEad  10.5887 14.1471 -7.25829
LeftShoulder1  6.36111e-015 -1.33558e-015 6.49777e-015
LeftArm  33.5559 -2.74676 -41.6759
LeftForeArm  6.41708 -22.2835 -9.97209
LeftHand  -0.979989 0.761218 -14.4313
RightShoulder  -4.77083e-015 -6.36111e-015 -3.18055e-015
RightArm  66.2465 -48.59 -50.4273
RightForeArm  8.72976 1.11316 13.0991
RightHand  -0.922052 2.98514 4.00928
LeftUpLeg  41.8236 18.8019 4.32198
LeftLeg  -16.2449 -13.2683 -0.141256
LeftFoot  -3.91787 3.79584 -14.4917
LeftToes  9.54166e-015 -1.91609e-011 -2.3878e-011
